{"title":"Zombieland 2009 DVDrip English Klam","uid":6437946,"size":1431338766,"categoryP":"video","categoryS":"movies","magnet":"?xt=urn:btih:aa173f5b3489a714d8e186aff688ff2d80306548&amp;dn=Zombieland+2009+DVDrip+English+Klam&amp;tr=udp%3A%2F%2Ftracker.openbittorrent.com%3A80&amp;tr=udp%3A%2F%2Fopen.demonii.com%3A1337&amp;tr=udp%3A%2F%2Ftracker.coppersurfer.tk%3A6969&amp;tr=udp%3A%2F%2Fexodus.desync.com%3A6969","seeders":1,"leechers":0,"uploader":"Klambake","files":-1,"time":1306862147,"description":"With: Woody Harrelson, Jesse Eisenberg and Emma Stone\n\nTwee mannen genaamd Columbus (Jesse Eissenberg) en Tallahassee (Woody Harrelson) moeten zien te overleven in een wereld die overbevolkt is door zombies. Tijdens hun strijd met overleving bundelen ze krachten met Wichita (Emma Stone) en Little Rock (Abigail Breslin), die ook een manier hebben gevonden om in leven te blijven. Tijdens hun strijd moeten ze zich afvragen wat erger is, van elkaar afhankelijk moeten zijn of toch maar aan de zombies overgeven.\n\nA shy student trying to reach his family in Ohio, and a gun-toting tough guy trying to find the Last Twinkie and a pair of sisters trying to get to an amusement park join forces to travel across a zombie-filled America. \n\nGeneral:\n\nComplete name                    : Zombieland\\Zombieland.avi\nFormat                           : AVI\nFormat/Info                      : Audio Video Interleave\nFile size                        : 1.33 GiB\nDuration                         : 1h 27mn\nOverall bit rate                 : 2 176 Kbps\n\nVideo:\n\nFormat                           : MPEG-4 Visual\nFormat profile                   : Simple@L3\nFormat settings, BVOP            : No\nFormat settings, QPel            : No\nFormat settings, GMC             : No warppoints\nFormat settings, Matrix          : Default (H.263)\nCodec ID                         : XVID\nCodec ID/Hint                    : XviD\nDuration                         : 1h 27mn\nBit rate                         : 1 717 Kbps\nWidth                            : 720 pixels\nHeight                           : 304 pixels\nDisplay aspect ratio             : 2.35:1\nFrame rate                       : 23.976 fps\nColor space                      : YUV\nChroma subsampling               : 4:2:0\nBit depth                        : 8 bits\nScan type                        : Progressive\nBits/(Pixel*Frame)               : 0.327\nStream size                      : 1.05 GiB (79%)\nWriting library                  : XviD 1.1.2 (UTC 2006-11-01)\n\nAudio:\n\nFormat                           : AC-3\nFormat/Info                      : Audio Coding 3\nMode extension                   : CM (complete main)\nCodec ID                         : 2000\nDuration                         : 1h 27mn\nBit rate mode                    : Constant\nBit rate                         : 448 Kbps\nChannel(s)                       : 6 channels\nChannel positions                : Front: L C R, Side: L R, LFE\nSampling rate                    : 48.0 KHz\nBit depth                        : 16 bits\nStream size                      : 281 MiB (21%)\nAlignment                        : Aligned on interleaves\nInterleave, duration             : 32 ms (0.77 video frame)\nInterleave, preload duration     : 512 ms\n","torrent":{"xt":"urn:btih:aa173f5b3489a714d8e186aff688ff2d80306548","amp;dn":"Zombieland+2009+DVDrip+English+Klam","amp;tr":["udp%3A%2F%2Ftracker.openbittorrent.com%3A80","udp%3A%2F%2Fopen.demonii.com%3A1337","udp%3A%2F%2Ftracker.coppersurfer.tk%3A6969","udp%3A%2F%2Fexodus.desync.com%3A6969"],"infoHash":"aa173f5b3489a714d8e186aff688ff2d80306548","infoHashBuffer":{"type":"Buffer","data":[170,23,63,91,52,137,167,20,216,225,134,175,246,136,255,45,128,48,101,72]},"announce":[],"urlList":[]}}